<svg xmlns="http://www.w3.org/2000/svg" viewBox="0 0 900 250" width="900" height="250" role="img" font-family="Segoe UI, Arial, sans-serif">
  <title>Alur mesin bahts: permintaan, naskah, cek, rakit, hasil</title>
  <defs>
    <marker id="p" viewBox="0 0 10 10" refX="9" refY="5" markerWidth="7" markerHeight="7" orient="auto"><path d="M0 1L10 5L0 9z" fill="#5f5e5a"/></marker>
  </defs>
  <rect width="900" height="250" fill="#ffffff"/>
  <g font-size="15" font-weight="600" text-anchor="middle" fill="#2c2c2a">
    <rect x="20" y="40" width="150" height="80" rx="8" fill="#faeeda" stroke="#ba7517"/>
    <text x="95" y="74">Kamu</text>
    <rect x="200" y="40" width="150" height="80" rx="8" fill="#e6f1fb" stroke="#185fa5"/>
    <text x="275" y="74">Agent AI</text>
    <rect x="380" y="40" width="150" height="80" rx="8" fill="#fcebeb" stroke="#a32d2d"/>
    <text x="455" y="74">cek</text>
    <rect x="560" y="40" width="150" height="80" rx="8" fill="#f1efe8" stroke="#5f5e5a"/>
    <text x="635" y="74">rakit</text>
    <rect x="740" y="40" width="140" height="80" rx="8" fill="#e1f5ee" stroke="#0f6e56"/>
    <text x="810" y="74">Word + PDF</text>
    <rect x="380" y="170" width="150" height="60" rx="8" fill="#eaf3de" stroke="#3b6d11"/>
    <text x="455" y="197">Kitab Shamela</text>
  </g>
  <g font-size="12.5" text-anchor="middle" fill="#5f5e5a">
    <text x="95" y="98">minta bahts</text>
    <text x="275" y="98">menulis naskah.txt</text>
    <text x="455" y="98">kutipan vs kitab</text>
    <text x="635" y="98">Microsoft Word</text>
    <text x="810" y="98">sampul sampai فهرس</text>
    <text x="455" y="216">di komputermu</text>
  </g>
  <g stroke="#5f5e5a" stroke-width="1.5" fill="none" marker-end="url(#p)">
    <path d="M170 80H198"/>
    <path d="M350 80H378"/>
    <path d="M530 80H558"/>
    <path d="M710 80H738"/>
    <path d="M455 170V122"/>
  </g>
  <text x="545" y="150" font-size="12.5" fill="#a32d2d">GAGAL: 0 dulu, baru rakit</text>
</svg>
